<?xml version="1.0" standalone="no"?>
<!DOCTYPE svg PUBLIC "-//W3C//DTD SVG 20010904//EN"
 "http://www.w3.org/TR/2001/REC-SVG-20010904/DTD/svg10.dtd">
<svg version="1.0" xmlns="http://www.w3.org/2000/svg"
 width="220.000000pt" height="34.000000pt" viewBox="0 0 220.000000 34.000000"
 preserveAspectRatio="xMidYMid meet">
<metadata>
Created by potrace 1.15, written by Peter Selinger 2001-2017
</metadata>
<g transform="translate(0.000000,34.000000) scale(0.100000,-0.100000)"
fill="#000000" stroke="none">
<path d="M810 293 c-8 -3 -44 -19 -80 -36 -36 -16 -81 -33 -100 -36 l-35 -6
-3 -70 c-3 -71 -11 -85 -47 -84 -11 0 -15 2 -10 5 6 2 9 36 7 81 l-3 78 -49
-3 -48 -4 -26 -66 c-14 -37 -25 -59 -25 -50 -1 10 -10 41 -21 70 l-20 53 -54
-3 c-45 -3 -66 2 -131 32 -43 20 -91 36 -107 36 -29 0 -28 -2 29 -44 62 -46
122 -71 154 -63 17 5 19 -1 19 -62 0 -39 -5 -72 -12 -79 -9 -9 -3 -12 29 -12
l42 0 3 47 4 48 14 -48 c14 -45 16 -47 51 -47 36 0 38 2 53 48 8 26 17 58 20
72 2 14 4 -9 3 -50 l-2 -75 82 6 c44 3 88 11 97 18 11 10 16 31 16 71 0 57 0
57 38 72 21 8 62 33 90 54 60 46 69 64 22 47z"/>
<path d="M1150 170 l0 -50 59 0 c48 0 60 3 64 18 4 16 5 16 6 0 2 -32 30 -20
34 15 l4 32 1 -32 c2 -31 5 -33 37 -33 34 0 35 1 35 40 0 22 5 40 10 40 6 0
10 -18 10 -40 0 -29 4 -40 15 -40 11 0 15 11 15 40 0 22 5 40 10 40 6 0 10
-18 10 -40 0 -42 24 -58 33 -22 4 16 5 16 6 0 1 -14 10 -18 46 -18 l45 0 0 50
c0 38 -4 50 -15 50 -10 0 -15 -10 -15 -34 0 -19 -4 -38 -10 -41 -6 -4 -10 10
-10 34 l0 41 -110 0 c-81 0 -110 -3 -110 -12 0 -9 -2 -10 -8 -2 -4 7 -40 12
-84 13 l-78 2 0 -51z"/>
<path d="M1600 170 c0 -37 4 -50 14 -50 8 0 17 8 19 18 4 15 5 15 6 0 1 -15
14 -17 109 -15 l107 2 0 45 0 45 -53 3 c-31 2 -60 -2 -68 -9 -8 -7 -14 -7 -14
-1 0 5 -27 10 -60 11 l-60 1 0 -50z"/>
<path d="M800 78 c0 -5 -16 -8 -35 -8 -23 0 -35 -5 -35 -13 0 -21 437 -18 450
3 8 13 10 13 10 -1 0 -11 9 -16 25 -16 14 0 25 4 25 9 0 7 4 7 13 0 20 -17 81
-9 85 11 2 9 0 17 -5 18 -46 5 -533 2 -533 -3z"/>
</g>
</svg>
