<?xml version="1.0" standalone="no"?>
<!DOCTYPE svg PUBLIC "-//W3C//DTD SVG 20010904//EN"
 "http://www.w3.org/TR/2001/REC-SVG-20010904/DTD/svg10.dtd">
<svg version="1.0" xmlns="http://www.w3.org/2000/svg"
 width="1000.000000pt" height="268.000000pt" viewBox="0 0 1000.000000 268.000000"
 preserveAspectRatio="xMidYMid meet">
<metadata>
Created by potrace 1.15, written by Peter Selinger 2001-2017
</metadata>
<g transform="translate(0.000000,268.000000) scale(0.100000,-0.100000)"
fill="#000000" stroke="none">
<path d="M3715 2321 c-122 -41 -129 -46 -349 -245 -107 -96 -197 -166 -381
-297 l-90 -64 -102 -3 -103 -4 0 -549 c0 -620 2 -602 -71 -639 -42 -22 -171
-41 -216 -32 -30 6 -29 30 2 44 l25 11 0 596 c0 351 -4 602 -10 611 -7 12 -13
11 -35 -10 -26 -24 -32 -25 -203 -30 l-176 -5 -47 -233 c-26 -127 -50 -236
-53 -240 -6 -10 -69 -334 -86 -439 -6 -40 -18 -77 -26 -84 -20 -16 -48 -3 -39
19 13 30 24 97 17 102 -8 6 -7 2 -27 113 -18 100 -41 202 -49 215 -3 5 -10 42
-16 83 -6 41 -15 85 -20 99 -5 14 -16 61 -24 105 -21 112 -36 175 -67 278
l-11 38 -24 -25 -25 -24 -210 3 -210 3 -72 50 c-40 27 -101 69 -137 94 -117
79 -173 124 -290 233 -126 116 -207 175 -272 198 -63 22 -148 40 -155 33 -7
-7 16 -43 58 -88 19 -19 48 -53 64 -74 17 -21 40 -49 52 -61 13 -13 23 -28 23
-32 0 -4 11 -21 25 -37 35 -40 37 -42 69 -99 16 -27 34 -53 40 -57 7 -5 7 -8
1 -8 -7 0 -7 -3 0 -8 6 -4 25 -29 44 -57 35 -51 149 -167 190 -195 13 -8 37
-25 54 -37 17 -13 37 -23 44 -23 7 0 13 -4 13 -10 0 -5 18 -15 40 -21 22 -7
40 -16 40 -20 0 -4 18 -10 40 -14 22 -4 40 -11 40 -15 0 -5 26 -12 57 -16 51
-6 58 -5 71 15 8 11 21 21 28 21 12 0 14 -91 14 -560 l0 -561 -23 -23 c-41
-41 -26 -46 129 -46 l144 0 0 409 c0 225 -5 455 -11 511 -6 59 -6 107 -1 112
9 9 27 -59 66 -257 35 -178 134 -625 146 -661 14 -41 13 -59 -4 -74 -8 -6 -12
-18 -9 -26 4 -11 36 -14 164 -14 l158 0 7 60 c4 33 10 60 13 60 4 0 13 41 20
92 6 51 16 97 20 103 5 5 12 38 16 73 4 34 10 62 14 62 4 0 13 43 20 96 7 53
16 104 21 113 11 21 39 195 47 293 3 42 10 82 14 90 25 38 29 -34 23 -502 -6
-442 -8 -486 -23 -500 -42 -37 -20 -40 276 -40 226 0 298 3 345 16 34 8 66 21
73 27 7 7 25 21 41 32 53 39 84 81 104 142 19 59 20 89 20 512 l0 450 35 7
c19 3 35 10 35 14 0 4 20 13 45 20 25 7 45 16 45 21 0 4 10 11 22 15 21 6 51
26 101 64 69 52 197 195 197 219 0 5 6 14 13 18 7 4 18 19 25 33 25 49 79 131
121 185 58 74 86 107 106 129 71 77 99 127 78 139 -5 2 -44 -8 -88 -22z"/>
<path d="M1720 2210 c-117 -16 -183 -38 -223 -76 -20 -19 -37 -37 -37 -38 0
-14 54 -56 86 -66 21 -7 44 -16 49 -21 6 -4 45 -11 88 -15 42 -4 77 -11 77
-15 0 -5 104 -9 230 -9 127 0 230 4 230 9 0 4 34 11 76 15 43 3 82 10 88 15 6
5 25 12 43 15 47 11 83 48 83 88 0 48 -14 66 -39 51 -16 -10 -25 -9 -48 2 -70
35 -165 47 -403 50 -129 2 -264 0 -300 -5z m380 -50 c0 -6 33 -10 78 -10 42
-1 113 -7 156 -15 52 -9 85 -11 97 -4 29 15 35 -11 8 -32 -84 -64 -538 -89
-778 -44 -83 16 -141 38 -141 53 0 12 216 42 298 42 46 0 71 4 67 10 -4 6 33
10 104 10 67 0 111 -4 111 -10z"/>
<path d="M4780 1345 l0 -355 51 0 52 0 -5 205 c-3 113 -4 204 -3 203 1 -2 15
-65 30 -140 l28 -138 41 0 42 0 28 140 c16 77 29 140 30 140 1 0 -1 -92 -3
-205 l-3 -205 51 0 51 0 0 355 0 356 -57 -3 -56 -3 -38 -178 c-21 -98 -39
-186 -41 -195 -2 -9 -18 55 -36 143 -19 88 -38 177 -43 198 l-10 37 -54 0 -55
0 0 -355z"/>
<path d="M5279 1671 l-29 -29 0 -296 0 -295 24 -28 c24 -27 27 -28 130 -28
102 0 106 1 133 28 l28 27 3 280 c4 370 4 370 -169 370 -87 0 -92 -1 -120 -29z
m175 -77 c14 -13 16 -50 16 -249 0 -199 -2 -236 -16 -249 -18 -18 -56 -21 -85
-6 -18 10 -19 24 -19 260 0 189 3 250 13 253 26 11 76 6 91 -9z"/>
<path d="M5640 1345 l0 -355 50 0 50 0 1 218 1 217 49 -150 c39 -119 49 -164
49 -217 l0 -68 50 0 50 0 0 355 0 355 -50 0 -50 0 -1 -157 0 -158 -47 157 -47
158 -52 0 -53 0 0 -355z"/>
<path d="M6059 1685 c-38 -21 -49 -63 -49 -185 0 -128 2 -132 110 -193 l75
-43 3 -79 c2 -66 0 -82 -14 -92 -10 -7 -23 -13 -30 -13 -21 0 -44 30 -44 56 0
22 -4 24 -51 24 l-51 0 4 -56 c7 -80 36 -107 122 -112 35 -2 80 1 100 8 56 18
66 48 66 193 0 141 4 133 -95 188 -94 51 -95 52 -95 134 0 75 9 95 45 95 32 0
45 -20 45 -67 l0 -43 50 0 50 0 0 60 c0 71 -20 117 -56 130 -38 15 -155 11
-185 -5z"/>
<path d="M6340 1655 l0 -45 45 0 45 0 0 -310 0 -310 50 0 50 0 0 310 0 310 45
0 45 0 0 45 0 45 -140 0 -140 0 0 -45z"/>
<path d="M6709 1685 c-45 -25 -49 -56 -49 -386 l0 -309 50 0 50 0 0 130 0 130
50 0 50 0 0 -130 0 -130 50 0 50 0 0 324 0 325 -24 28 c-23 26 -30 28 -113 31
-63 1 -95 -2 -114 -13z m139 -87 c8 -8 12 -53 12 -135 l0 -123 -50 0 -50 0 0
123 c0 132 5 147 50 147 14 0 31 -5 38 -12z"/>
<path d="M7110 1406 c0 -331 1 -326 -71 -326 l-39 0 0 -45 0 -45 65 0 c35 0
75 5 89 11 52 24 56 50 56 388 l0 311 -50 0 -50 0 0 -294z"/>
<path d="M7319 1671 l-29 -29 0 -326 0 -326 50 0 50 0 0 130 0 130 50 0 50 0
0 -130 0 -130 50 0 50 0 0 311 c0 401 1 399 -161 399 -76 0 -82 -2 -110 -29z
m161 -80 c5 -11 10 -72 10 -135 l0 -116 -50 0 -50 0 0 129 c0 138 0 139 52
140 17 1 31 -6 38 -18z"/>
<path d="M7660 1345 l0 -355 50 0 50 0 2 188 3 187 25 -120 26 -120 40 -3 41
-3 31 138 31 138 -6 -202 -6 -203 51 0 52 0 0 355 0 355 -55 0 c-48 0 -55 -3
-60 -22 -3 -13 -20 -96 -39 -186 -19 -90 -36 -165 -38 -168 -3 -2 -22 81 -44
186 l-39 190 -57 0 -58 0 0 -355z"/>
<path d="M8159 1672 l-34 -30 -3 -119 c-2 -82 1 -125 10 -142 7 -14 49 -45 93
-70 l80 -46 3 -78 c2 -50 -1 -84 -9 -93 -26 -32 -79 -4 -79 42 0 22 -4 24 -51
24 l-52 0 6 -51 c11 -93 44 -119 148 -119 65 0 112 18 129 49 5 11 10 78 10
150 l0 130 -32 24 c-18 14 -56 37 -85 51 -64 32 -73 48 -73 125 0 63 15 91 49
91 28 0 41 -21 41 -67 l0 -43 50 0 50 0 0 69 c0 59 -4 74 -24 98 -22 26 -31
28 -109 31 -82 4 -85 3 -118 -26z"/>
<path d="M3687 663 c-13 -12 -8 -228 5 -241 17 -17 101 -15 144 3 81 34 84
192 4 232 -26 13 -142 18 -153 6z"/>
<path d="M5266 654 c-3 -9 -6 -25 -6 -37 0 -20 -4 -22 -44 -19 -35 3 -49 -1
-65 -17 -29 -29 -29 -108 -1 -144 19 -24 27 -26 90 -25 l70 2 0 128 c0 119 -1
128 -19 128 -10 0 -22 -7 -25 -16z"/>
<path d="M5462 658 c-7 -7 -12 -22 -12 -34 0 -13 -8 -24 -20 -27 -11 -3 -20
-10 -20 -17 0 -7 9 -14 20 -17 18 -5 20 -14 20 -80 0 -71 1 -74 23 -71 20 3
22 9 25 74 2 62 6 73 22 77 26 7 26 27 0 34 -29 8 -25 33 5 33 18 0 25 5 25
20 0 16 -7 20 -38 20 -21 0 -43 -5 -50 -12z"/>
<path d="M6207 663 c-4 -3 -7 -62 -7 -130 0 -123 0 -124 23 -121 20 3 22 10
27 77 l5 73 50 -73 c40 -59 55 -74 75 -74 l25 0 0 125 c0 118 -1 125 -20 125
-18 0 -20 -8 -23 -79 l-3 -79 -56 82 c-51 75 -76 94 -96 74z"/>
<path d="M7144 657 c-2 -7 -3 -65 -2 -128 3 -106 4 -114 23 -114 18 0 20 8 23
75 l4 75 21 -75 c18 -62 26 -76 45 -78 25 -4 43 28 59 103 8 39 8 38 13 -30 5
-63 7 -70 28 -73 l23 -3 -3 128 -3 128 -32 3 c-36 4 -44 -6 -63 -85 -14 -56
-24 -60 -34 -16 -26 105 -24 103 -62 103 -19 0 -37 -6 -40 -13z"/>
<path d="M8746 654 c-3 -9 -6 -25 -6 -37 0 -20 -4 -22 -44 -19 -35 3 -49 -1
-65 -17 -29 -29 -29 -108 -1 -144 19 -24 27 -26 90 -25 l70 2 0 128 c0 119 -1
128 -19 128 -10 0 -22 -7 -25 -16z"/>
<path d="M8910 645 c0 -13 18 -72 41 -130 35 -91 44 -105 64 -105 31 0 37 10
80 127 39 105 40 133 6 133 -16 0 -25 -16 -47 -85 -16 -47 -31 -85 -34 -85 -3
0 -18 38 -34 85 -24 76 -30 85 -52 85 -19 0 -24 -5 -24 -25z"/>
<path d="M9377 663 c-4 -3 -7 -20 -7 -37 0 -31 0 -31 -49 -28 -45 4 -51 1 -68
-24 -26 -40 -23 -108 7 -139 25 -27 77 -34 97 -14 8 8 13 8 17 0 4 -6 16 -11
27 -11 18 0 19 8 19 130 0 119 -1 130 -18 130 -10 0 -22 -3 -25 -7z"/>
<path d="M3962 593 c-19 -7 -42 -58 -42 -93 0 -48 47 -90 100 -90 57 0 90 36
90 97 0 61 -32 93 -92 92 -24 0 -49 -3 -56 -6z"/>
<path d="M4126 591 c-3 -4 7 -46 23 -92 25 -74 31 -84 52 -84 20 0 27 8 39 47
8 27 17 48 20 48 3 0 12 -21 20 -48 12 -39 19 -47 39 -47 21 0 27 10 52 84 16
46 26 88 23 92 -3 5 -14 9 -24 9 -14 0 -22 -11 -31 -42 -17 -65 -21 -66 -38
-13 -14 42 -20 50 -41 50 -21 0 -27 -8 -41 -50 -17 -53 -21 -52 -38 13 -9 31
-17 42 -31 42 -10 0 -21 -4 -24 -9z"/>
<path d="M4424 585 c-3 -6 -4 -47 -2 -91 3 -73 5 -79 26 -82 20 -3 22 0 22 47
0 65 14 101 40 101 22 0 28 -18 32 -95 3 -42 6 -50 23 -50 18 0 20 8 23 76 4
99 -5 109 -94 107 -41 -1 -68 -6 -70 -13z"/>
<path d="M4752 593 c-19 -7 -42 -58 -42 -93 0 -48 47 -90 100 -90 57 0 90 36
90 97 0 61 -32 93 -92 92 -24 0 -49 -3 -56 -6z"/>
<path d="M4945 580 c-19 -21 -14 -50 8 -50 8 0 20 7 27 15 7 8 23 15 36 15 15
0 24 -6 24 -15 0 -8 -6 -15 -12 -15 -39 0 -90 -23 -100 -45 -24 -54 44 -96
104 -64 15 8 22 8 28 -1 4 -7 16 -10 26 -8 17 3 19 11 15 78 -4 95 -16 110
-86 110 -39 0 -56 -5 -70 -20z"/>
<path d="M5711 574 c-31 -39 -29 -107 4 -139 32 -33 101 -35 133 -5 12 12 22
25 22 31 0 18 -31 22 -49 5 -24 -22 -58 -20 -71 4 -10 18 -6 19 52 22 59 3 63
5 66 29 2 14 -6 37 -18 52 -18 23 -29 27 -70 27 -41 0 -52 -4 -69 -26z"/>
<path d="M5932 593 c-19 -7 -42 -58 -42 -93 0 -47 47 -90 97 -90 45 0 83 23
83 51 0 24 -10 24 -49 2 -23 -14 -35 -15 -48 -7 -35 22 -25 33 34 36 57 3 58
3 61 35 5 46 -26 73 -80 72 -24 0 -49 -3 -56 -6z"/>
<path d="M6470 580 c-11 -11 -20 -25 -20 -30 0 -19 31 -23 50 -5 19 17 66 18
63 0 -1 -5 -22 -15 -46 -21 -62 -16 -67 -20 -67 -59 0 -24 6 -38 19 -45 24
-12 71 -13 90 -1 9 6 21 5 32 -2 30 -19 37 2 30 86 -8 89 -14 97 -83 97 -35 0
-54 -6 -68 -20z"/>
<path d="M6757 594 c-4 -4 -7 -52 -7 -106 0 -90 -2 -98 -19 -98 -26 0 -36 -17
-21 -35 20 -24 67 -19 85 9 12 18 15 47 13 127 -3 96 -5 104 -23 107 -12 2
-24 0 -28 -4z"/>
<path d="M6860 580 c-11 -11 -20 -25 -20 -30 0 -19 31 -23 50 -5 19 17 66 18
63 0 -1 -5 -22 -15 -46 -21 -62 -16 -67 -20 -67 -59 0 -24 6 -38 19 -45 24
-12 71 -13 90 -1 9 6 21 5 32 -2 30 -19 37 2 30 86 -8 89 -14 97 -83 97 -35 0
-54 -6 -68 -20z"/>
<path d="M7427 594 c-12 -12 -7 -127 6 -154 12 -23 18 -25 85 -26 l72 -1 0 94
c0 92 -1 94 -22 91 -21 -3 -23 -9 -26 -65 -3 -63 -19 -90 -46 -80 -11 4 -16
26 -18 74 -3 60 -5 68 -23 71 -12 2 -24 0 -28 -4z"/>
<path d="M7634 575 c-24 -37 -10 -61 49 -83 29 -11 52 -24 52 -28 0 -16 -51
-15 -65 0 -18 23 -50 20 -50 -3 0 -48 110 -71 150 -31 40 40 19 82 -51 100
-22 6 -39 16 -37 22 7 19 25 20 41 3 23 -22 57 -20 57 5 0 26 -29 40 -84 40
-37 0 -48 -4 -62 -25z"/>
<path d="M7929 574 c-36 -38 -34 -107 4 -140 51 -44 147 -24 147 32 0 17 -5
24 -20 24 -11 0 -23 -7 -26 -15 -8 -20 -42 -29 -59 -15 -18 15 -20 71 -3 88
18 18 39 15 64 -9 25 -23 44 -18 44 11 0 52 -109 69 -151 24z"/>
<path d="M8220 580 c-11 -11 -20 -25 -20 -30 0 -19 31 -23 50 -5 19 17 66 18
63 0 -1 -5 -22 -15 -46 -21 -62 -16 -67 -20 -67 -59 0 -24 6 -38 19 -45 24
-12 71 -13 90 -1 9 6 21 5 32 -2 30 -19 37 2 30 86 -8 89 -14 97 -83 97 -35 0
-54 -6 -68 -20z"/>
<path d="M8412 506 c3 -83 5 -91 23 -91 17 0 21 8 25 60 6 68 14 85 39 85 22
0 31 -27 31 -98 0 -50 2 -53 23 -50 20 3 22 9 25 77 4 99 -7 111 -100 109
l-69 -1 3 -91z"/>
<path d="M9479 574 c-36 -38 -34 -107 4 -140 49 -42 147 -24 147 27 0 23 -22
25 -40 4 -15 -18 -51 -20 -68 -3 -22 22 -13 28 42 28 61 0 80 15 70 54 -15 59
-110 78 -155 30z"/>
<path d="M9681 574 c-31 -39 -29 -107 4 -139 33 -34 93 -34 132 -1 23 20 28
32 28 69 0 65 -32 97 -96 97 -39 0 -51 -4 -68 -26z"/>
</g>
</svg>
